<svg width="16" height="16" viewBox="0 0 16 16" fill="none" xmlns="http://www.w3.org/2000/svg">
<g clip-path="url(#clip0_2140_175)">
<path fill-rule="evenodd" clip-rule="evenodd" d="M7.99992 1.83325C4.59416 1.83325 1.83325 4.59416 1.83325 7.99992C1.83325 11.4057 4.59416 14.1666 7.99992 14.1666C11.4057 14.1666 14.1666 11.4057 14.1666 7.99992C14.1666 4.59416 11.4057 1.83325 7.99992 1.83325ZM0.833252 7.99992C0.833252 4.04188 4.04188 0.833252 7.99992 0.833252C11.958 0.833252 15.1666 4.04188 15.1666 7.99992C15.1666 11.958 11.958 15.1666 7.99992 15.1666C4.04188 15.1666 0.833252 11.958 0.833252 7.99992ZM7.99992 4.83325C8.27606 4.83325 8.49992 5.05711 8.49992 5.33325V7.99992C8.49992 8.27606 8.27606 8.49992 7.99992 8.49992C7.72378 8.49992 7.49992 8.27606 7.49992 7.99992V5.33325C7.49992 5.05711 7.72378 4.83325 7.99992 4.83325ZM7.49992 10.6666C7.49992 10.3904 7.72378 10.1666 7.99992 10.1666H8.00658C8.28273 10.1666 8.50658 10.3904 8.50658 10.6666C8.50658 10.9427 8.28273 11.1666 8.00658 11.1666H7.99992C7.72378 11.1666 7.49992 10.9427 7.49992 10.6666Z" fill="#FF5959"/>
</g>
<defs>
<clipPath id="clip0_2140_175">
<rect width="16" height="16" fill="white"/>
</clipPath>
</defs>
</svg>
